<svg width="187" height="66" viewBox="0 0 187 66" fill="none" xmlns="http://www.w3.org/2000/svg">
<g filter="url(#filter0_d_190_6)">
<rect x="25" y="16" width="40.7143" height="40" rx="20" fill="url(#paint0_linear_190_6)"/>
<rect x="15" width="40.7143" height="40" rx="20" fill="url(#paint1_linear_190_6)"/>
<rect x="4" y="18" width="40.7143" height="40" rx="20" fill="url(#paint2_linear_190_6)"/>
</g>
<path d="M75.2617 28.9375V46H71.7578V28.9375H75.2617ZM81.6484 36.0273V46H78.2734V33.3203H81.4375L81.6484 36.0273ZM81.1562 39.2148H80.2422C80.2422 38.2773 80.3633 37.4336 80.6055 36.6836C80.8477 35.9258 81.1875 35.2812 81.625 34.75C82.0625 34.2109 82.582 33.8008 83.1836 33.5195C83.793 33.2305 84.4727 33.0859 85.2227 33.0859C85.8164 33.0859 86.3594 33.1719 86.8516 33.3438C87.3438 33.5156 87.7656 33.7891 88.1172 34.1641C88.4766 34.5391 88.75 35.0352 88.9375 35.6523C89.1328 36.2695 89.2305 37.0234 89.2305 37.9141V46H85.832V37.9023C85.832 37.3398 85.7539 36.9023 85.5977 36.5898C85.4414 36.2773 85.2109 36.0586 84.9062 35.9336C84.6094 35.8008 84.2422 35.7344 83.8047 35.7344C83.3516 35.7344 82.957 35.8242 82.6211 36.0039C82.293 36.1836 82.0195 36.4336 81.8008 36.7539C81.5898 37.0664 81.4297 37.4336 81.3203 37.8555C81.2109 38.2773 81.1562 38.7305 81.1562 39.2148ZM102.977 43.2578V46H94.3867V43.2578H102.977ZM95.5234 28.9375V46H92.0078V28.9375H95.5234ZM104.242 39.7891V39.543C104.242 38.6133 104.375 37.7578 104.641 36.9766C104.906 36.1875 105.293 35.5039 105.801 34.9258C106.309 34.3477 106.934 33.8984 107.676 33.5781C108.418 33.25 109.27 33.0859 110.23 33.0859C111.191 33.0859 112.047 33.25 112.797 33.5781C113.547 33.8984 114.176 34.3477 114.684 34.9258C115.199 35.5039 115.59 36.1875 115.855 36.9766C116.121 37.7578 116.254 38.6133 116.254 39.543V39.7891C116.254 40.7109 116.121 41.5664 115.855 42.3555C115.59 43.1367 115.199 43.8203 114.684 44.4062C114.176 44.9844 113.551 45.4336 112.809 45.7539C112.066 46.0742 111.215 46.2344 110.254 46.2344C109.293 46.2344 108.438 46.0742 107.688 45.7539C106.945 45.4336 106.316 44.9844 105.801 44.4062C105.293 43.8203 104.906 43.1367 104.641 42.3555C104.375 41.5664 104.242 40.7109 104.242 39.7891ZM107.617 39.543V39.7891C107.617 40.3203 107.664 40.8164 107.758 41.2773C107.852 41.7383 108 42.1445 108.203 42.4961C108.414 42.8398 108.688 43.1094 109.023 43.3047C109.359 43.5 109.77 43.5977 110.254 43.5977C110.723 43.5977 111.125 43.5 111.461 43.3047C111.797 43.1094 112.066 42.8398 112.27 42.4961C112.473 42.1445 112.621 41.7383 112.715 41.2773C112.816 40.8164 112.867 40.3203 112.867 39.7891V39.543C112.867 39.0273 112.816 38.543 112.715 38.0898C112.621 37.6289 112.469 37.2227 112.258 36.8711C112.055 36.5117 111.785 36.2305 111.449 36.0273C111.113 35.8242 110.707 35.7227 110.23 35.7227C109.754 35.7227 109.348 35.8242 109.012 36.0273C108.684 36.2305 108.414 36.5117 108.203 36.8711C108 37.2227 107.852 37.6289 107.758 38.0898C107.664 38.543 107.617 39.0273 107.617 39.543ZM126.355 33.3203H129.414V45.5781C129.414 46.7344 129.156 47.7148 128.641 48.5195C128.133 49.332 127.422 49.9453 126.508 50.3594C125.594 50.7812 124.531 50.9922 123.32 50.9922C122.789 50.9922 122.227 50.9219 121.633 50.7812C121.047 50.6406 120.484 50.4219 119.945 50.125C119.414 49.8281 118.969 49.4531 118.609 49L120.098 47.0078C120.488 47.4609 120.941 47.8125 121.457 48.0625C121.973 48.3203 122.543 48.4492 123.168 48.4492C123.777 48.4492 124.293 48.3359 124.715 48.1094C125.137 47.8906 125.461 47.5664 125.688 47.1367C125.914 46.7148 126.027 46.2031 126.027 45.6016V36.25L126.355 33.3203ZM117.824 39.8125V39.5664C117.824 38.5977 117.941 37.7188 118.176 36.9297C118.418 36.1328 118.758 35.4492 119.195 34.8789C119.641 34.3086 120.18 33.8672 120.812 33.5547C121.445 33.2422 122.16 33.0859 122.957 33.0859C123.801 33.0859 124.508 33.2422 125.078 33.5547C125.648 33.8672 126.117 34.3125 126.484 34.8906C126.852 35.4609 127.137 36.1367 127.34 36.918C127.551 37.6914 127.715 38.5391 127.832 39.4609V40C127.715 40.8828 127.539 41.7031 127.305 42.4609C127.07 43.2188 126.762 43.8828 126.379 44.4531C125.996 45.0156 125.52 45.4531 124.949 45.7656C124.387 46.0781 123.715 46.2344 122.934 46.2344C122.152 46.2344 121.445 46.0742 120.812 45.7539C120.188 45.4336 119.652 44.9844 119.207 44.4062C118.762 43.8281 118.418 43.1484 118.176 42.3672C117.941 41.5859 117.824 40.7344 117.824 39.8125ZM121.199 39.5664V39.8125C121.199 40.3359 121.25 40.8242 121.352 41.2773C121.453 41.7305 121.609 42.1328 121.82 42.4844C122.039 42.8281 122.309 43.0977 122.629 43.293C122.957 43.4805 123.344 43.5742 123.789 43.5742C124.406 43.5742 124.91 43.4453 125.301 43.1875C125.691 42.9219 125.984 42.5586 126.18 42.0977C126.375 41.6367 126.488 41.1055 126.52 40.5039V38.9688C126.504 38.4766 126.438 38.0352 126.32 37.6445C126.203 37.2461 126.039 36.9062 125.828 36.625C125.617 36.3438 125.344 36.125 125.008 35.9688C124.672 35.8125 124.273 35.7344 123.812 35.7344C123.367 35.7344 122.98 35.8359 122.652 36.0391C122.332 36.2344 122.062 36.5039 121.844 36.8477C121.633 37.1914 121.473 37.5977 121.363 38.0664C121.254 38.5273 121.199 39.0273 121.199 39.5664ZM135.801 44.5703L139.164 33.3203H142.785L137.688 47.9102C137.578 48.2305 137.43 48.5742 137.242 48.9414C137.062 49.3086 136.816 49.6562 136.504 49.9844C136.199 50.3203 135.812 50.5938 135.344 50.8047C134.883 51.0156 134.316 51.1211 133.645 51.1211C133.324 51.1211 133.062 51.1016 132.859 51.0625C132.656 51.0234 132.414 50.9688 132.133 50.8984V48.4258C132.219 48.4258 132.309 48.4258 132.402 48.4258C132.496 48.4336 132.586 48.4375 132.672 48.4375C133.117 48.4375 133.48 48.3867 133.762 48.2852C134.043 48.1836 134.27 48.0273 134.441 47.8164C134.613 47.6133 134.75 47.3477 134.852 47.0195L135.801 44.5703ZM134.395 33.3203L137.148 42.5078L137.629 46.082L135.332 46.3281L130.773 33.3203H134.395ZM154.234 40.3398H157.738C157.668 41.4883 157.352 42.5078 156.789 43.3984C156.234 44.2891 155.457 44.9844 154.457 45.4844C153.465 45.9844 152.27 46.2344 150.871 46.2344C149.777 46.2344 148.797 46.0469 147.93 45.6719C147.062 45.2891 146.32 44.7422 145.703 44.0312C145.094 43.3203 144.629 42.4609 144.309 41.4531C143.988 40.4453 143.828 39.3164 143.828 38.0664V36.8828C143.828 35.6328 143.992 34.5039 144.32 33.4961C144.656 32.4805 145.133 31.6172 145.75 30.9062C146.375 30.1953 147.121 29.6484 147.988 29.2656C148.855 28.8828 149.824 28.6914 150.895 28.6914C152.316 28.6914 153.516 28.9492 154.492 29.4648C155.477 29.9805 156.238 30.6914 156.777 31.5977C157.324 32.5039 157.652 33.5352 157.762 34.6914H154.246C154.207 34.0039 154.07 33.4219 153.836 32.9453C153.602 32.4609 153.246 32.0977 152.77 31.8555C152.301 31.6055 151.676 31.4805 150.895 31.4805C150.309 31.4805 149.797 31.5898 149.359 31.8086C148.922 32.0273 148.555 32.3594 148.258 32.8047C147.961 33.25 147.738 33.8125 147.59 34.4922C147.449 35.1641 147.379 35.9531 147.379 36.8594V38.0664C147.379 38.9492 147.445 39.7266 147.578 40.3984C147.711 41.0625 147.914 41.625 148.188 42.0859C148.469 42.5391 148.828 42.8828 149.266 43.1172C149.711 43.3438 150.246 43.457 150.871 43.457C151.605 43.457 152.211 43.3398 152.688 43.1055C153.164 42.8711 153.527 42.5234 153.777 42.0625C154.035 41.6016 154.188 41.0273 154.234 40.3398Z" fill="#1B5AB9"/>
<defs>
<filter id="filter0_d_190_6" x="0" y="0" width="69.7143" height="66" filterUnits="userSpaceOnUse" color-interpolation-filters="sRGB">
<feFlood flood-opacity="0" result="BackgroundImageFix"/>
<feColorMatrix in="SourceAlpha" type="matrix" values="0 0 0 0 0 0 0 0 0 0 0 0 0 0 0 0 0 0 127 0" result="hardAlpha"/>
<feOffset dy="4"/>
<feGaussianBlur stdDeviation="2"/>
<feComposite in2="hardAlpha" operator="out"/>
<feColorMatrix type="matrix" values="0 0 0 0 0 0 0 0 0 0 0 0 0 0 0 0 0 0 0.25 0"/>
<feBlend mode="normal" in2="BackgroundImageFix" result="effect1_dropShadow_190_6"/>
<feBlend mode="normal" in="SourceGraphic" in2="effect1_dropShadow_190_6" result="shape"/>
</filter>
<linearGradient id="paint0_linear_190_6" x1="68.5" y1="36" x2="12.5" y2="36" gradientUnits="userSpaceOnUse">
<stop stop-color="#3986B1"/>
<stop offset="1" stop-color="#3986B1" stop-opacity="0"/>
</linearGradient>
<linearGradient id="paint1_linear_190_6" x1="35" y1="2.12201e-07" x2="35" y2="92.5" gradientUnits="userSpaceOnUse">
<stop stop-color="#B13939"/>
<stop offset="1" stop-color="#3986B1" stop-opacity="0"/>
</linearGradient>
<linearGradient id="paint2_linear_190_6" x1="24" y1="38" x2="60.5" y2="38" gradientUnits="userSpaceOnUse">
<stop stop-color="#AFB139"/>
<stop offset="1" stop-color="#AFB139" stop-opacity="0"/>
</linearGradient>
</defs>
</svg>
