<svg width="48" height="48" viewBox="0 0 48 48" fill="none" xmlns="http://www.w3.org/2000/svg">
<path d="M14.3 42.2C13.8 41.7 13.55 41.108 13.55 40.424C13.55 39.74 13.8 39.1487 14.3 38.65L28.95 24L14.25 9.3C13.7834 8.83333 13.55 8.25 13.55 7.55C13.55 6.85 13.8 6.25 14.3 5.75C14.8 5.25 15.392 5 16.076 5C16.76 5 17.3514 5.25 17.85 5.75L34.6501 22.6C34.8501 22.8 34.9921 23.0167 35.076 23.25C35.16 23.4833 35.2014 23.7333 35.2001 24C35.2001 24.2667 35.1581 24.5167 35.0741 24.75C34.9901 24.9833 34.8487 25.2 34.6501 25.4L17.8 42.25C17.3334 42.7167 16.758 42.95 16.074 42.95C15.39 42.95 14.7987 42.7 14.3 42.2Z" fill="white"/>
</svg>
