<svg width="98" height="100" viewBox="0 0 98 100" fill="none" xmlns="http://www.w3.org/2000/svg">
<path d="M4.66605 0.52063L3.21901 4.10588L20.5575 10.9698L21.9872 7.3845L4.66605 0.52063ZM93.3426 0.522774L76.0128 7.3845L77.4425 10.9698L94.7723 4.10803L93.3426 0.522774ZM49 0.814398C42.7179 0.814398 38.1689 3.83356 34.9845 8.16717C31.8002 12.5029 30.1538 18.1831 30.1538 22.9006C30.1538 25.6882 31.6702 28.8617 33.2949 31.2633C34.9195 33.6649 36.5225 35.2517 36.5225 35.2517L36.8475 35.5733L38.8621 41.5559H42.9346L35.721 16.4827L49 20.8635L62.279 16.4827L55.0654 41.5559H59.1379L61.1525 35.5733L61.4775 35.2517C61.4775 35.2517 63.0805 33.6649 64.7051 31.2633C66.3298 28.8617 67.8462 25.6882 67.8462 22.9006C67.8462 18.1831 66.1998 12.5029 63.0155 8.16717C59.8311 3.83356 55.282 0.814398 49 0.814398ZM76.7277 20.9707V24.8304H97.5234V20.9707H76.7277ZM0.47657 20.9922V24.8519H21.2723V20.9922H0.47657ZM41.4832 22.4503L47.0071 41.5559H50.9929L56.5168 22.4503L49 24.9377L41.4832 22.4503ZM77.4425 34.8228L76.0128 38.4252L93.3426 45.287L94.7723 41.6846L77.4425 34.8228ZM20.5575 34.8443L3.21901 41.706L4.66605 45.3084L21.9872 38.4467L20.5575 34.8443ZM40.5517 45.4156V48.4176H57.4483V45.4156H40.5517ZM40.5517 52.2774V55.2794H57.4483V52.2774H40.5517ZM30.3921 52.8349C24.5217 52.9421 18.9978 53.907 15.9001 55.215L0 99.2588C15.4019 96.2353 31.172 93.6836 47.0504 99.0658V59.1391H36.6525V53.0707C34.9412 52.9206 33.1866 52.8349 31.4752 52.8349H30.3921ZM66.5247 52.8349C64.8134 52.8349 63.0588 52.9206 61.3475 53.0707V59.1391H50.9496V99.0658C66.828 93.6836 82.5981 96.2353 98 99.2588L82.0999 55.215C79.0022 53.907 73.4783 52.9421 67.6079 52.8349H66.5247Z" fill="black"/>
</svg>
