<svg width="78" height="78" viewBox="0 0 78 78" fill="none" xmlns="http://www.w3.org/2000/svg">
<circle cx="39" cy="39" r="39" fill="white"/>
<g clip-path="url(#clip0_424_167)">
<path d="M49.6059 20.3559C49.7191 20.2424 49.8536 20.1523 50.0017 20.0909C50.1497 20.0294 50.3085 19.9978 50.4688 19.9978C50.6291 19.9978 50.7878 20.0294 50.9359 20.0909C51.0839 20.1523 51.2184 20.2424 51.3316 20.3559L58.6441 27.6684C58.7576 27.7816 58.8477 27.9161 58.9091 28.0641C58.9706 28.2122 59.0022 28.3709 59.0022 28.5312C59.0022 28.6915 58.9706 28.8503 58.9091 28.9983C58.8477 29.1464 58.7576 29.2809 58.6441 29.3941L34.2691 53.7691C34.1522 53.8853 34.0129 53.9765 33.8596 54.0372L21.6721 58.9122C21.4507 59.0009 21.208 59.0226 20.9743 58.9746C20.7406 58.9267 20.5261 58.8112 20.3575 58.6425C20.1888 58.4739 20.0733 58.2594 20.0253 58.0257C19.9774 57.792 19.9991 57.5493 20.0878 57.3279L24.9628 45.1404C25.0235 44.9871 25.1147 44.8478 25.2309 44.7309L49.6059 20.3559ZM47.3171 26.0937L52.9063 31.6829L56.058 28.5312L50.4688 22.942L47.3171 26.0937ZM51.183 33.4062L45.5938 27.817L29.75 43.6608V44.375H30.9688C31.292 44.375 31.602 44.5034 31.8306 44.7319C32.0591 44.9605 32.1875 45.2705 32.1875 45.5937V46.8125H33.4063C33.7295 46.8125 34.0395 46.9409 34.2681 47.1694C34.4966 47.398 34.625 47.708 34.625 48.0312V49.25H35.3392L51.183 33.4062ZM27.3905 46.0203L27.1321 46.2787L23.4076 55.5924L32.7213 51.8679L32.9797 51.6095C32.7472 51.5226 32.5468 51.3668 32.4052 51.163C32.2637 50.9591 32.1877 50.7169 32.1875 50.4687V49.25H30.9688C30.6455 49.25 30.3355 49.1216 30.107 48.893C29.8784 48.6645 29.75 48.3545 29.75 48.0312V46.8125H28.5313C28.2831 46.8123 28.0409 46.7363 27.837 46.5948C27.6332 46.4532 27.4774 46.2528 27.3905 46.0203Z" fill="black"/>
</g>
<defs>
<clipPath id="clip0_424_167">
<rect width="39" height="39" fill="white" transform="translate(20 20)"/>
</clipPath>
</defs>
</svg>
