<svg width="32" height="32" viewBox="0 0 32 32" fill="none" xmlns="http://www.w3.org/2000/svg">
<path d="M16.708 2.29199C16.6151 2.19886 16.5048 2.12497 16.3833 2.07456C16.2618 2.02415 16.1315 1.9982 16 1.9982C15.8685 1.9982 15.7382 2.02415 15.6167 2.07456C15.4952 2.12497 15.3849 2.19886 15.292 2.29199L3.292 14.292C3.1992 14.385 3.12564 14.4954 3.07554 14.6169C3.02543 14.7384 2.99977 14.8686 3 15V29C3 29.2652 3.10536 29.5196 3.29289 29.7071C3.48043 29.8946 3.73479 30 4 30H13C13.2652 30 13.5196 29.8946 13.7071 29.7071C13.8946 29.5196 14 29.2652 14 29V21H18V29C18 29.2652 18.1054 29.5196 18.2929 29.7071C18.4804 29.8946 18.7348 30 19 30H28C28.2652 30 28.5196 29.8946 28.7071 29.7071C28.8946 29.5196 29 29.2652 29 29V15C29.0002 14.8686 28.9746 14.7384 28.9245 14.6169C28.8744 14.4954 28.8008 14.385 28.708 14.292L26 11.586V4.99999C26 4.73477 25.8946 4.48042 25.7071 4.29288C25.5196 4.10534 25.2652 3.99999 25 3.99999H23C22.7348 3.99999 22.4804 4.10534 22.2929 4.29288C22.1054 4.48042 22 4.73477 22 4.99999V7.58599L16.708 2.29199ZM5 28V15.414L16 4.41399L27 15.414V28H20V20C20 19.7348 19.8946 19.4804 19.7071 19.2929C19.5196 19.1053 19.2652 19 19 19H13C12.7348 19 12.4804 19.1053 12.2929 19.2929C12.1054 19.4804 12 19.7348 12 20V28H5Z" fill="black"/>
</svg>
