<svg width="98" height="98" viewBox="0 0 98 98" fill="none" xmlns="http://www.w3.org/2000/svg">
<path d="M72.0747 46.3512L80.6213 37.8912L60.2074 17.684L51.6608 26.1441L29.1238 3.8892C24.8777 -0.313896 17.9642 -0.313896 13.7181 3.8892L3.3751 14.1275C-0.870994 18.3306 -0.870994 25.1741 3.3751 29.3772L25.8576 51.6321L0.816556 76.4734C0.272186 77.0123 0 77.6589 0 78.4133V94.7946C0 96.3034 1.19762 97.4889 2.72185 97.4889H19.2707C19.9784 97.4889 20.6861 97.2195 21.176 96.6806L46.3259 71.7854L68.8084 94.0402C75.9941 101.153 83.8331 94.4174 84.2141 94.0402L94.5572 83.8019C98.8033 79.5988 98.8033 72.7553 94.5572 68.5522L72.0747 46.3512ZM33.6421 43.9803L11.1052 21.7254L21.3938 11.4871L28.3073 18.3306L25.7487 20.971C24.7309 21.9786 24.1591 23.3451 24.1591 24.77C24.1591 26.1948 24.7309 27.5614 25.7487 28.5689C26.7666 29.5765 28.1471 30.1425 29.5865 30.1425C31.026 30.1425 32.4065 29.5765 33.4244 28.5689L36.0373 25.9824L43.9307 33.7958L33.6421 43.9803ZM76.5385 86.4962L54.056 64.2413L64.399 54.003L72.2924 61.8165L69.6794 64.403C69.1754 64.9019 68.7757 65.4941 68.5029 66.146C68.2301 66.7978 68.0898 67.4964 68.0898 68.202C68.0898 68.9075 68.2301 69.6061 68.5029 70.2579C68.7757 70.9098 69.1754 71.502 69.6794 72.0009C70.1834 72.4998 70.7817 72.8955 71.4402 73.1655C72.0987 73.4355 72.8045 73.5745 73.5172 73.5745C74.23 73.5745 74.9358 73.4355 75.5943 73.1655C76.2527 72.8955 76.8511 72.4998 77.355 72.0009L79.968 69.4144L86.8815 76.2579L76.5385 86.4962ZM96.408 22.2643C96.9127 21.7658 97.313 21.1736 97.5862 20.5217C97.8594 19.8699 98 19.1711 98 18.4653C98 17.7596 97.8594 17.0608 97.5862 16.4089C97.313 15.757 96.9127 15.1649 96.408 14.6664L83.6698 2.05708C81.1112 -0.475554 77.5728 0.494391 75.9941 2.05708L66.0322 11.9182L86.446 32.1254L96.408 22.2643Z" fill="black"/>
</svg>
