<svg width="31" height="49" viewBox="0 0 31 49" fill="none" xmlns="http://www.w3.org/2000/svg">
<path d="M12.1786 42.3182H18.8214C19.1167 42.3182 19.375 42.2068 19.5964 41.9841C19.8179 41.7614 19.9286 41.5015 19.9286 41.2045C19.9286 40.9076 19.8179 40.6477 19.5964 40.425C19.375 40.2023 19.1167 40.0909 18.8214 40.0909H12.1786C11.8833 40.0909 11.625 40.2023 11.4036 40.425C11.1821 40.6477 11.0714 40.9076 11.0714 41.2045C11.0714 41.5015 11.1821 41.7614 11.4036 41.9841C11.625 42.2068 11.8833 42.3182 12.1786 42.3182ZM4.42857 49C3.21072 49 2.16779 48.5634 1.29979 47.6904C0.431789 46.8173 -0.00147243 45.769 3.7594e-06 44.5454V4.45455C3.7594e-06 3.22955 0.434003 2.1805 1.302 1.30741C2.17 0.434322 3.21219 -0.00148107 4.42857 3.78145e-06H26.5714C27.7893 3.78145e-06 28.8322 0.436549 29.7002 1.30964C30.5682 2.18273 31.0015 3.23103 31 4.45455V44.5454C31 45.7705 30.566 46.8195 29.698 47.6926C28.83 48.5657 27.7878 49.0015 26.5714 49H4.42857ZM4.42857 33.4091H26.5714V11.1364H4.42857V33.4091ZM4.42857 37.8636V44.5454H26.5714V37.8636H4.42857ZM4.42857 6.68182H26.5714V4.45455H4.42857V6.68182Z" fill="black"/>
</svg>
