<svg width="76" height="76" viewBox="0 0 76 76" fill="none" xmlns="http://www.w3.org/2000/svg">
<g clip-path="url(#clip0_275_213)">
<rect width="76" height="76" rx="38" fill="black"/>
<path d="M76 38C76 48.0782 71.9964 57.7437 64.8701 64.8701C57.7437 71.9964 48.0782 76 38 76C27.9218 76 18.2563 71.9964 11.1299 64.8701C4.00356 57.7437 0 48.0782 0 38C0 27.9218 4.00356 18.2563 11.1299 11.1299C18.2563 4.00356 27.9218 0 38 0C48.0782 0 57.7437 4.00356 64.8701 11.1299C71.9964 18.2563 76 27.9218 76 38ZM40.375 21.375C40.375 20.7451 40.1248 20.141 39.6794 19.6956C39.234 19.2502 38.6299 19 38 19C37.3701 19 36.766 19.2502 36.3206 19.6956C35.8752 20.141 35.625 20.7451 35.625 21.375V35.625H21.375C20.7451 35.625 20.141 35.8752 19.6956 36.3206C19.2502 36.766 19 37.3701 19 38C19 38.6299 19.2502 39.234 19.6956 39.6794C20.141 40.1248 20.7451 40.375 21.375 40.375H35.625V54.625C35.625 55.2549 35.8752 55.859 36.3206 56.3044C36.766 56.7498 37.3701 57 38 57C38.6299 57 39.234 56.7498 39.6794 56.3044C40.1248 55.859 40.375 55.2549 40.375 54.625V40.375H54.625C55.2549 40.375 55.859 40.1248 56.3044 39.6794C56.7498 39.234 57 38.6299 57 38C57 37.3701 56.7498 36.766 56.3044 36.3206C55.859 35.8752 55.2549 35.625 54.625 35.625H40.375V21.375Z" fill="white"/>
</g>
<defs>
<clipPath id="clip0_275_213">
<rect width="76" height="76" rx="38" fill="white"/>
</clipPath>
</defs>
</svg>
