<svg width="98" height="98" viewBox="0 0 98 98" fill="none" xmlns="http://www.w3.org/2000/svg">
<path d="M27.2222 75.9508C28.7648 75.9508 30.0588 75.4334 31.1041 74.3986C32.1494 73.3639 32.6703 72.0848 32.6667 70.5614V43.6149C32.6667 42.0879 32.144 40.807 31.0987 39.7723C30.0533 38.7375 28.7612 38.222 27.2222 38.2255C25.6796 38.2255 24.3857 38.7429 23.3403 39.7777C22.295 40.8124 21.7742 42.0915 21.7778 43.6149V70.5614C21.7778 72.0884 22.3005 73.3693 23.3458 74.404C24.3911 75.4388 25.6833 75.9543 27.2222 75.9508ZM49 75.9508C50.5426 75.9508 51.8366 75.4334 52.8819 74.3986C53.9272 73.3639 54.4481 72.0848 54.4444 70.5614V27.4469C54.4444 25.9199 53.9218 24.6391 52.8764 23.6043C51.8311 22.5696 50.539 22.054 49 22.0576C47.4574 22.0576 46.1634 22.575 45.1181 23.6097C44.0728 24.6445 43.5519 25.9235 43.5556 27.4469V70.5614C43.5556 72.0884 44.0782 73.3693 45.1236 74.404C46.1689 75.4388 47.461 75.9543 49 75.9508ZM70.7778 75.9508C72.3204 75.9508 73.6143 75.4334 74.6597 74.3986C75.705 73.3639 76.2259 72.0848 76.2222 70.5614V59.7828C76.2222 58.2558 75.6996 56.975 74.6542 55.9402C73.6089 54.9055 72.3167 54.3899 70.7778 54.3935C69.2352 54.3935 67.9412 54.9109 66.8959 55.9456C65.8505 56.9804 65.3297 58.2594 65.3333 59.7828V70.5614C65.3333 72.0884 65.856 73.3693 66.9013 74.404C67.9467 75.4388 69.2388 75.9543 70.7778 75.9508ZM10.8889 97.508C7.89445 97.508 5.33012 96.4517 3.1959 94.3391C1.06168 92.2265 -0.00362039 89.6899 9.24354e-06 86.7294V11.279C9.24354e-06 8.31485 1.06712 5.77648 3.20134 3.66387C5.33556 1.55126 7.89808 0.496752 10.8889 0.500345H87.1111C90.1056 0.500345 92.6699 1.55665 94.8041 3.66926C96.9383 5.78187 98.0036 8.31844 98 11.279V86.7294C98 89.6935 96.9329 92.2319 94.7987 94.3445C92.6644 96.4571 90.1019 97.5116 87.1111 97.508H10.8889Z" fill="black"/>
</svg>
