<svg width="78" height="78" viewBox="0 0 78 78" fill="none" xmlns="http://www.w3.org/2000/svg">
<g clip-path="url(#clip0_424_207)">
<path d="M51.1875 41.4375C51.1875 44.6698 49.9035 47.7698 47.6179 50.0554C45.3323 52.341 42.2323 53.625 39 53.625C35.7677 53.625 32.6677 52.341 30.3821 50.0554C28.0965 47.7698 26.8125 44.6698 26.8125 41.4375C26.8125 38.2052 28.0965 35.1052 30.3821 32.8196C32.6677 30.534 35.7677 29.25 39 29.25C42.2323 29.25 45.3323 30.534 47.6179 32.8196C49.9035 35.1052 51.1875 38.2052 51.1875 41.4375Z" fill="white"/>
<path d="M9.75 19.5C7.16414 19.5 4.68419 20.5272 2.85571 22.3557C1.02723 24.1842 0 26.6641 0 29.25L0 58.5C0 61.0859 1.02723 63.5658 2.85571 65.3943C4.68419 67.2228 7.16414 68.25 9.75 68.25H68.25C70.8359 68.25 73.3158 67.2228 75.1443 65.3943C76.9728 63.5658 78 61.0859 78 58.5V29.25C78 26.6641 76.9728 24.1842 75.1443 22.3557C73.3158 20.5272 70.8359 19.5 68.25 19.5H62.5365C59.9509 19.4994 57.4713 18.4719 55.6432 16.6432L51.6068 12.6067C49.7787 10.7781 47.2991 9.75055 44.7135 9.75H33.2865C30.7009 9.75055 28.2213 10.7781 26.3932 12.6067L22.3568 16.6432C20.5287 18.4719 18.0491 19.4994 15.4635 19.5H9.75ZM12.1875 29.25C11.541 29.25 10.921 28.9932 10.4639 28.5361C10.0068 28.079 9.75 27.459 9.75 26.8125C9.75 26.166 10.0068 25.546 10.4639 25.0889C10.921 24.6318 11.541 24.375 12.1875 24.375C12.834 24.375 13.454 24.6318 13.9111 25.0889C14.3682 25.546 14.625 26.166 14.625 26.8125C14.625 27.459 14.3682 28.079 13.9111 28.5361C13.454 28.9932 12.834 29.25 12.1875 29.25ZM56.0625 41.4375C56.0625 45.9628 54.2648 50.3027 51.065 53.5025C47.8652 56.7023 43.5253 58.5 39 58.5C34.4747 58.5 30.1348 56.7023 26.935 53.5025C23.7352 50.3027 21.9375 45.9628 21.9375 41.4375C21.9375 36.9122 23.7352 32.5723 26.935 29.3725C30.1348 26.1727 34.4747 24.375 39 24.375C43.5253 24.375 47.8652 26.1727 51.065 29.3725C54.2648 32.5723 56.0625 36.9122 56.0625 41.4375Z" fill="white"/>
</g>
<defs>
<clipPath id="clip0_424_207">
<rect width="78" height="78" fill="white"/>
</clipPath>
</defs>
</svg>
