<svg width="100" height="100" viewBox="0 0 100 100" fill="none" xmlns="http://www.w3.org/2000/svg">
<path d="M40.6377 43.75C41.8688 43.75 43.0879 43.5075 44.2254 43.0364C45.3628 42.5652 46.3963 41.8747 47.2668 41.0041C48.1374 40.1336 48.8279 39.1001 49.2991 37.9627C49.7702 36.8252 50.0127 35.6061 50.0127 34.375C50.0127 33.1439 49.7702 31.9248 49.2991 30.7873C48.8279 29.6499 48.1374 28.6164 47.2668 27.7459C46.3963 26.8753 45.3628 26.1848 44.2254 25.7136C43.0879 25.2425 41.8688 25 40.6377 25C38.1513 25 35.7667 25.9877 34.0086 27.7459C32.2504 29.504 31.2627 31.8886 31.2627 34.375C31.2627 36.8614 32.2504 39.246 34.0086 41.0041C35.7667 42.7623 38.1513 43.75 40.6377 43.75Z" fill="black"/>
<path d="M87.5 87.5C87.5 90.8152 86.183 93.9946 83.8388 96.3388C81.4946 98.683 78.3152 100 75 100H25C21.6848 100 18.5054 98.683 16.1612 96.3388C13.817 93.9946 12.5 90.8152 12.5 87.5V12.5C12.5 9.18479 13.817 6.00537 16.1612 3.66117C18.5054 1.31696 21.6848 0 25 0L59.375 0L87.5 28.125V87.5ZM25 6.25C23.3424 6.25 21.7527 6.90848 20.5806 8.08058C19.4085 9.25268 18.75 10.8424 18.75 12.5V75L32.65 61.1C33.1426 60.6086 33.7851 60.2956 34.4757 60.2107C35.1663 60.1258 35.8655 60.2738 36.4625 60.6313L50 68.75L63.4812 49.875C63.745 49.5061 64.086 49.199 64.4803 48.9751C64.8747 48.7512 65.3131 48.6158 65.7651 48.5783C66.217 48.5409 66.6718 48.6022 67.0976 48.7582C67.5235 48.9141 67.9103 49.1608 68.2312 49.4812L81.25 62.5V28.125H68.75C66.2636 28.125 63.879 27.1373 62.1209 25.3791C60.3627 23.621 59.375 21.2364 59.375 18.75V6.25H25Z" fill="black"/>
</svg>
