<svg width="339" height="82" viewBox="0 0 339 82" fill="none" xmlns="http://www.w3.org/2000/svg">
<g filter="url(#filter0_d_421_36)">
<rect x="30.542" y="20.2222" width="51.4583" height="50.5556" rx="25.2778" fill="url(#paint0_linear_421_36)"/>
<rect x="17.9026" width="51.4583" height="50.5556" rx="25.2778" fill="url(#paint1_linear_421_36)"/>
<rect x="4" y="22.75" width="51.4583" height="50.5556" rx="25.2778" fill="url(#paint2_linear_421_36)"/>
</g>
<path d="M116.031 19.5V65H106.688V19.5H116.031ZM133.062 38.4062V65H124.062V31.1875H132.5L133.062 38.4062ZM131.75 46.9062H129.312C129.312 44.4062 129.635 42.1562 130.281 40.1562C130.927 38.1354 131.833 36.4167 133 35C134.167 33.5625 135.552 32.4688 137.156 31.7188C138.781 30.9479 140.594 30.5625 142.594 30.5625C144.177 30.5625 145.625 30.7917 146.938 31.25C148.25 31.7083 149.375 32.4375 150.312 33.4375C151.271 34.4375 152 35.7604 152.5 37.4062C153.021 39.0521 153.281 41.0625 153.281 43.4375V65H144.219V43.4062C144.219 41.9062 144.01 40.7396 143.594 39.9062C143.177 39.0729 142.562 38.4896 141.75 38.1562C140.958 37.8021 139.979 37.625 138.812 37.625C137.604 37.625 136.552 37.8646 135.656 38.3438C134.781 38.8229 134.052 39.4896 133.469 40.3438C132.906 41.1771 132.479 42.1562 132.188 43.2812C131.896 44.4062 131.75 45.6146 131.75 46.9062ZM189.938 57.6875V65H167.031V57.6875H189.938ZM170.062 19.5V65H160.688V19.5H170.062ZM193.312 48.4375V47.7812C193.312 45.3021 193.667 43.0208 194.375 40.9375C195.083 38.8333 196.115 37.0104 197.469 35.4688C198.823 33.9271 200.49 32.7292 202.469 31.875C204.448 31 206.719 30.5625 209.281 30.5625C211.844 30.5625 214.125 31 216.125 31.875C218.125 32.7292 219.802 33.9271 221.156 35.4688C222.531 37.0104 223.573 38.8333 224.281 40.9375C224.99 43.0208 225.344 45.3021 225.344 47.7812V48.4375C225.344 50.8958 224.99 53.1771 224.281 55.2812C223.573 57.3646 222.531 59.1875 221.156 60.75C219.802 62.2917 218.135 63.4896 216.156 64.3438C214.177 65.1979 211.906 65.625 209.344 65.625C206.781 65.625 204.5 65.1979 202.5 64.3438C200.521 63.4896 198.844 62.2917 197.469 60.75C196.115 59.1875 195.083 57.3646 194.375 55.2812C193.667 53.1771 193.312 50.8958 193.312 48.4375ZM202.312 47.7812V48.4375C202.312 49.8542 202.438 51.1771 202.688 52.4062C202.938 53.6354 203.333 54.7188 203.875 55.6562C204.438 56.5729 205.167 57.2917 206.062 57.8125C206.958 58.3333 208.052 58.5938 209.344 58.5938C210.594 58.5938 211.667 58.3333 212.562 57.8125C213.458 57.2917 214.177 56.5729 214.719 55.6562C215.26 54.7188 215.656 53.6354 215.906 52.4062C216.177 51.1771 216.312 49.8542 216.312 48.4375V47.7812C216.312 46.4062 216.177 45.1146 215.906 43.9062C215.656 42.6771 215.25 41.5938 214.688 40.6562C214.146 39.6979 213.427 38.9479 212.531 38.4062C211.635 37.8646 210.552 37.5938 209.281 37.5938C208.01 37.5938 206.927 37.8646 206.031 38.4062C205.156 38.9479 204.438 39.6979 203.875 40.6562C203.333 41.5938 202.938 42.6771 202.688 43.9062C202.438 45.1146 202.312 46.4062 202.312 47.7812ZM252.281 31.1875H260.438V63.875C260.438 66.9583 259.75 69.5729 258.375 71.7188C257.021 73.8854 255.125 75.5208 252.688 76.625C250.25 77.75 247.417 78.3125 244.188 78.3125C242.771 78.3125 241.271 78.125 239.688 77.75C238.125 77.375 236.625 76.7917 235.188 76C233.771 75.2083 232.583 74.2083 231.625 73L235.594 67.6875C236.635 68.8958 237.844 69.8333 239.219 70.5C240.594 71.1875 242.115 71.5312 243.781 71.5312C245.406 71.5312 246.781 71.2292 247.906 70.625C249.031 70.0417 249.896 69.1771 250.5 68.0312C251.104 66.9062 251.406 65.5417 251.406 63.9375V39L252.281 31.1875ZM229.531 48.5V47.8438C229.531 45.2604 229.844 42.9167 230.469 40.8125C231.115 38.6875 232.021 36.8646 233.188 35.3438C234.375 33.8229 235.812 32.6458 237.5 31.8125C239.188 30.9792 241.094 30.5625 243.219 30.5625C245.469 30.5625 247.354 30.9792 248.875 31.8125C250.396 32.6458 251.646 33.8333 252.625 35.375C253.604 36.8958 254.365 38.6979 254.906 40.7812C255.469 42.8438 255.906 45.1042 256.219 47.5625V49C255.906 51.3542 255.438 53.5417 254.812 55.5625C254.188 57.5833 253.365 59.3542 252.344 60.875C251.323 62.375 250.052 63.5417 248.531 64.375C247.031 65.2083 245.24 65.625 243.156 65.625C241.073 65.625 239.188 65.1979 237.5 64.3438C235.833 63.4896 234.406 62.2917 233.219 60.75C232.031 59.2083 231.115 57.3958 230.469 55.3125C229.844 53.2292 229.531 50.9583 229.531 48.5ZM238.531 47.8438V48.5C238.531 49.8958 238.667 51.1979 238.938 52.4062C239.208 53.6146 239.625 54.6875 240.188 55.625C240.771 56.5417 241.49 57.2604 242.344 57.7812C243.219 58.2812 244.25 58.5312 245.438 58.5312C247.083 58.5312 248.427 58.1875 249.469 57.5C250.51 56.7917 251.292 55.8229 251.812 54.5938C252.333 53.3646 252.635 51.9479 252.719 50.3438V46.25C252.677 44.9375 252.5 43.7604 252.188 42.7188C251.875 41.6562 251.438 40.75 250.875 40C250.312 39.25 249.583 38.6667 248.688 38.25C247.792 37.8333 246.729 37.625 245.5 37.625C244.312 37.625 243.281 37.8958 242.406 38.4375C241.552 38.9583 240.833 39.6771 240.25 40.5938C239.688 41.5104 239.26 42.5938 238.969 43.8438C238.677 45.0729 238.531 46.4062 238.531 47.8438ZM277.469 61.1875L286.438 31.1875H296.094L282.5 70.0938C282.208 70.9479 281.812 71.8646 281.312 72.8438C280.833 73.8229 280.177 74.75 279.344 75.625C278.531 76.5208 277.5 77.25 276.25 77.8125C275.021 78.375 273.51 78.6562 271.719 78.6562C270.865 78.6562 270.167 78.6042 269.625 78.5C269.083 78.3958 268.438 78.25 267.688 78.0625V71.4688C267.917 71.4688 268.156 71.4688 268.406 71.4688C268.656 71.4896 268.896 71.5 269.125 71.5C270.312 71.5 271.281 71.3646 272.031 71.0938C272.781 70.8229 273.385 70.4062 273.844 69.8438C274.302 69.3021 274.667 68.5938 274.938 67.7188L277.469 61.1875ZM273.719 31.1875L281.062 55.6875L282.344 65.2188L276.219 65.875L264.062 31.1875H273.719ZM326.625 49.9062H335.969C335.781 52.9688 334.938 55.6875 333.438 58.0625C331.958 60.4375 329.885 62.2917 327.219 63.625C324.573 64.9583 321.385 65.625 317.656 65.625C314.74 65.625 312.125 65.125 309.812 64.125C307.5 63.1042 305.521 61.6458 303.875 59.75C302.25 57.8542 301.01 55.5625 300.156 52.875C299.302 50.1875 298.875 47.1771 298.875 43.8438V40.6875C298.875 37.3542 299.312 34.3438 300.188 31.6562C301.083 28.9479 302.354 26.6458 304 24.75C305.667 22.8542 307.656 21.3958 309.969 20.375C312.281 19.3542 314.865 18.8438 317.719 18.8438C321.51 18.8438 324.708 19.5312 327.312 20.9062C329.938 22.2812 331.969 24.1771 333.406 26.5938C334.865 29.0104 335.74 31.7604 336.031 34.8438H326.656C326.552 33.0104 326.188 31.4583 325.562 30.1875C324.938 28.8958 323.99 27.9271 322.719 27.2812C321.469 26.6146 319.802 26.2812 317.719 26.2812C316.156 26.2812 314.792 26.5729 313.625 27.1562C312.458 27.7396 311.479 28.625 310.688 29.8125C309.896 31 309.302 32.5 308.906 34.3125C308.531 36.1042 308.344 38.2083 308.344 40.625V43.8438C308.344 46.1979 308.521 48.2708 308.875 50.0625C309.229 51.8333 309.771 53.3333 310.5 54.5625C311.25 55.7708 312.208 56.6875 313.375 57.3125C314.562 57.9167 315.99 58.2188 317.656 58.2188C319.615 58.2188 321.229 57.9062 322.5 57.2812C323.771 56.6562 324.74 55.7292 325.406 54.5C326.094 53.2708 326.5 51.7396 326.625 49.9062Z" fill="white"/>
<defs>
<filter id="filter0_d_421_36" x="0" y="0" width="86.0002" height="81.3057" filterUnits="userSpaceOnUse" color-interpolation-filters="sRGB">
<feFlood flood-opacity="0" result="BackgroundImageFix"/>
<feColorMatrix in="SourceAlpha" type="matrix" values="0 0 0 0 0 0 0 0 0 0 0 0 0 0 0 0 0 0 127 0" result="hardAlpha"/>
<feOffset dy="4"/>
<feGaussianBlur stdDeviation="2"/>
<feComposite in2="hardAlpha" operator="out"/>
<feColorMatrix type="matrix" values="0 0 0 0 0 0 0 0 0 0 0 0 0 0 0 0 0 0 0.25 0"/>
<feBlend mode="normal" in2="BackgroundImageFix" result="effect1_dropShadow_421_36"/>
<feBlend mode="normal" in="SourceGraphic" in2="effect1_dropShadow_421_36" result="shape"/>
</filter>
<linearGradient id="paint0_linear_421_36" x1="85.5212" y1="45.4999" x2="14.7434" y2="45.4999" gradientUnits="userSpaceOnUse">
<stop stop-color="#3986B1"/>
<stop offset="1" stop-color="#3986B1" stop-opacity="0"/>
</linearGradient>
<linearGradient id="paint1_linear_421_36" x1="43.1804" y1="2.68199e-07" x2="43.1804" y2="116.91" gradientUnits="userSpaceOnUse">
<stop stop-color="#B13939"/>
<stop offset="1" stop-color="#3986B1" stop-opacity="0"/>
</linearGradient>
<linearGradient id="paint2_linear_421_36" x1="29.2778" y1="48.0278" x2="75.4097" y2="48.0278" gradientUnits="userSpaceOnUse">
<stop stop-color="#AFB139"/>
<stop offset="1" stop-color="#AFB139" stop-opacity="0"/>
</linearGradient>
</defs>
</svg>
