<svg width="42" height="42" viewBox="0 0 42 42" fill="none" xmlns="http://www.w3.org/2000/svg">
<circle cx="21" cy="21" r="21" fill="black"/>
<path d="M15.1306 15.1305C15.2119 15.049 15.3084 14.9843 15.4147 14.9402C15.521 14.8961 15.635 14.8734 15.7501 14.8734C15.8652 14.8734 15.9792 14.8961 16.0855 14.9402C16.1918 14.9843 16.2883 15.049 16.3696 15.1305L21.0001 19.7627L25.6306 15.1305C25.712 15.0491 25.8085 14.9846 25.9148 14.9406C26.0211 14.8965 26.135 14.8739 26.2501 14.8739C26.3651 14.8739 26.4791 14.8965 26.5854 14.9406C26.6917 14.9846 26.7882 15.0491 26.8696 15.1305C26.951 15.2118 27.0155 15.3084 27.0595 15.4147C27.1035 15.521 27.1262 15.6349 27.1262 15.75C27.1262 15.865 27.1035 15.979 27.0595 16.0852C27.0155 16.1915 26.951 16.2881 26.8696 16.3695L22.2373 21L26.8696 25.6305C26.951 25.7118 27.0155 25.8084 27.0595 25.9147C27.1035 26.021 27.1262 26.1349 27.1262 26.25C27.1262 26.365 27.1035 26.479 27.0595 26.5852C27.0155 26.6915 26.951 26.7881 26.8696 26.8695C26.7882 26.9508 26.6917 27.0154 26.5854 27.0594C26.4791 27.1034 26.3651 27.1261 26.2501 27.1261C26.135 27.1261 26.0211 27.1034 25.9148 27.0594C25.8085 27.0154 25.712 26.9508 25.6306 26.8695L21.0001 22.2372L16.3696 26.8695C16.2882 26.9508 16.1917 27.0154 16.0854 27.0594C15.9791 27.1034 15.8652 27.1261 15.7501 27.1261C15.635 27.1261 15.5211 27.1034 15.4148 27.0594C15.3085 27.0154 15.212 26.9508 15.1306 26.8695C15.0492 26.7881 14.9847 26.6915 14.9407 26.5852C14.8967 26.479 14.874 26.365 14.874 26.25C14.874 26.1349 14.8967 26.021 14.9407 25.9147C14.9847 25.8084 15.0492 25.7118 15.1306 25.6305L19.7628 21L15.1306 16.3695C15.0491 16.2882 14.9845 16.1916 14.9404 16.0853C14.8962 15.979 14.8735 15.8651 14.8735 15.75C14.8735 15.6349 14.8962 15.5209 14.9404 15.4146C14.9845 15.3083 15.0491 15.2118 15.1306 15.1305Z" fill="white"/>
</svg>
