<svg width="22" height="20" viewBox="0 0 22 20" fill="none" xmlns="http://www.w3.org/2000/svg">
<path d="M5.025 6.20499C4.755 6.44499 4.4955 6.68799 4.248 6.93549C3.31747 7.87103 2.48328 8.89769 1.758 9.99999L2.0505 10.432C2.553 11.152 3.2955 12.112 4.248 13.0645C6.1815 14.998 8.8215 16.75 12 16.75C13.074 16.75 14.085 16.5505 15.03 16.21L16.185 17.368C14.8649 17.9448 13.4406 18.245 12 18.25C4.5 18.25 0 9.99999 0 9.99999C0 9.99999 1.4085 7.41849 3.9615 5.14299L5.0235 6.20649L5.025 6.20499ZM20.469 19.531L2.469 1.53099L3.531 0.468994L21.531 18.469L20.469 19.531Z" fill="#616571"/>
</svg>
