<svg width="387" height="428" viewBox="0 0 387 428" fill="none" xmlns="http://www.w3.org/2000/svg">
<path d="M131.535 147.799C131.535 147.799 68.5739 155.014 46.1055 171.917C23.6371 188.821 27.9991 214.719 101.198 201.115C174.398 187.511 131.535 147.799 131.535 147.799Z" fill="#68E1FD"/>
<path opacity="0.08" d="M131.535 147.799C131.535 147.799 68.5739 155.014 46.1055 171.917C23.6371 188.821 27.9991 214.719 101.198 201.115C174.398 187.511 131.535 147.799 131.535 147.799Z" fill="black" fill-opacity="0.9"/>
<path d="M106.614 105.338C108.812 105.074 110.946 104.433 112.918 103.445C116.21 101.827 123.288 100.21 123.14 107.004C123.041 111.323 116.21 106.211 115.749 112.018C115.288 117.825 116.128 125.169 103.931 123.341C92.8036 121.594 95.8982 106.68 106.614 105.338Z" fill="#F4A28C"/>
<path d="M302.657 141.604C349.238 141.604 387 109.905 387 70.8019C387 31.6991 349.238 0 302.657 0C256.076 0 218.314 31.6991 218.314 70.8019C218.314 109.905 256.076 141.604 302.657 141.604Z" fill="#24285B"/>
<path opacity="0.45" d="M178.414 427.027C276.949 427.027 356.828 415.882 356.828 402.133C356.828 388.384 276.949 377.238 178.414 377.238C79.8787 377.238 0 388.384 0 402.133C0 415.882 79.8787 427.027 178.414 427.027Z" fill="#E6E6E6"/>
<path opacity="0.58" d="M252.387 374.051C252.387 374.051 235.696 369.652 232.009 354.446C232.009 354.446 257.819 349.205 258.658 375.475L252.387 374.051Z" fill="#68E1FD"/>
<path opacity="0.73" d="M254.428 372.418C254.428 372.418 242.708 354.382 252.881 337.413C252.881 337.413 272.633 349.594 263.942 372.418H254.428Z" fill="#68E1FD"/>
<path d="M257.424 372.418C257.424 372.418 263.498 353.281 282.114 349.593C282.114 349.593 285.653 361.984 270.164 372.418H257.424Z" fill="#68E1FD"/>
<path d="M245.342 372.046L248.815 394.74H270.098L273.127 372.046H245.342Z" fill="#24285B"/>
<path d="M140.736 388.82C140.736 388.82 138.382 395.646 132.16 396.261C125.938 396.876 124.391 402.909 130.037 404.349C135.683 405.789 150.003 398.477 150.003 398.477L149.394 388.771L140.736 388.82Z" fill="#68E1FD"/>
<path d="M206.183 381.201C206.183 381.201 208.01 388.189 203.138 392.055C198.265 395.921 200.356 401.761 205.887 399.981C211.417 398.202 219.335 384.323 219.335 384.323L213.936 377.238L206.183 381.201Z" fill="#68E1FD"/>
<path d="M152.654 100.97C152.654 100.97 158.645 111.306 160.143 119.313C160.285 120.089 160.27 120.884 160.099 121.654C159.927 122.424 159.603 123.153 159.144 123.799C158.685 124.445 158.101 124.996 157.425 125.42C156.749 125.844 155.995 126.132 155.205 126.269C151.106 126.948 145.329 126.706 141.444 121.546L133.757 113.587C132.388 111.832 131.605 109.703 131.517 107.493C131.428 105.283 132.038 103.1 133.263 101.245C137.428 94.0142 149.329 94.4833 152.654 100.97Z" fill="#F4A28C"/>
<path d="M136.572 115.334L136.736 154.334L158.596 152.7L149.921 125.687L136.572 115.334Z" fill="#F4A28C"/>
<path d="M156.094 107.683L161.032 110.465C161.324 110.62 161.57 110.845 161.747 111.121C161.924 111.396 162.026 111.712 162.043 112.037C162.059 112.363 161.99 112.687 161.842 112.978C161.694 113.269 161.471 113.518 161.197 113.7L157.361 116.386L156.094 107.683Z" fill="#F4A28C"/>
<path opacity="0.31" d="M150.168 126.447C147.49 126.186 144.935 125.213 142.777 123.632C142.777 123.632 142.02 132.141 152.654 134.179L150.168 126.447Z" fill="#CE8172"/>
<path d="M305.735 26.6093C314.525 27.1107 321.422 29.8445 326.426 34.6972C328.787 36.9465 330.614 39.6795 331.778 42.7019C332.941 45.7243 333.413 48.9616 333.158 52.1834C333.117 56.3431 331.983 60.422 329.866 64.0241C327.792 67.1299 326.739 69.0386 323.545 71.1739C321.148 72.8982 318.578 74.3778 315.875 75.5899C314.064 76.5119 312.846 77.0295 312.369 77.3531C307.431 79.9574 304.649 82.4485 304.385 86.9454C304.221 89.8247 303.233 90.5849 300.418 90.4232L295.727 90.1482C292.912 89.9864 292.024 89.1291 292.188 86.2498C292.781 76.4472 297.126 71.9665 304.583 67.6475C304.468 67.6475 309.34 65.0432 309.521 64.93C311.041 64.0604 312.479 63.0589 313.817 61.9374C315.111 60.7011 316.219 59.2905 317.109 57.7479C317.885 55.8904 318.362 53.9259 318.525 51.9245C318.936 44.9042 313.932 39.8735 304.566 39.3397C295.53 38.8221 290.526 42.1058 286.806 49.1746C285.341 51.9892 284.386 52.4098 281.621 51.3099L276.106 49.0291C273.456 48.0747 272.814 46.2953 273.934 43.9337C279.794 31.5106 290.394 25.7358 305.735 26.6093ZM298.279 96.57C303.908 96.8935 305.669 98.8508 305.34 104.367V105.418C305.011 111.047 303.036 112.681 297.406 112.358H296.468C290.838 112.034 289.077 110.206 289.406 104.561V103.526C289.736 97.9935 291.711 96.2627 297.34 96.5862L298.279 96.57Z" fill="#FFD200"/>
<path d="M149.987 146.311H171.896C171.896 146.311 242.066 152.248 243.186 186.346C244.305 220.445 198.924 288.562 198.924 288.562H123.305C123.305 288.562 36.3116 146.311 149.987 146.311Z" fill="#68E1FD"/>
<path opacity="0.08" d="M194.15 177.967C194.15 177.967 178.315 200.161 184.932 217.436C191.549 234.712 194.496 262.389 143.502 235.586L136.094 212.357L116.177 205.628L108.161 237.673L121.889 242.25C125.045 243.254 127.675 245.435 129.214 248.323C130.752 251.211 131.078 254.577 130.119 257.698C128.292 263.198 123.782 268.633 113.214 269.685L123.37 288.497H198.989L209.014 272.467L236.569 212.988L194.15 177.967Z" fill="black" fill-opacity="0.9"/>
<path d="M136.605 123.131C136.605 123.131 131.535 114.008 125.477 109.98C119.42 105.952 124.375 92.9953 135.025 90.6822C142.991 88.9352 147.551 86.3632 147.617 81.9472C147.646 81.4787 147.804 81.0268 148.074 80.6393C148.344 80.2518 148.715 79.9432 149.148 79.7459C149.582 79.5487 150.061 79.4703 150.536 79.5189C151.011 79.5675 151.464 79.7415 151.847 80.0223C155.501 82.7236 159.238 87.1397 157.427 93.2541C156.717 95.472 155.434 97.471 153.703 99.0559C151.972 100.641 149.852 101.757 147.551 102.296L140.374 104.173C140.374 104.173 149.987 116.903 136.605 123.131Z" fill="#24285B"/>
<path d="M145.279 115.496C145.279 115.496 143.255 111.371 140.226 113.134C137.197 114.897 140.078 120.866 144.67 119.475L145.279 115.496Z" fill="#F4A28C"/>
<path d="M235.581 90.5365L193.953 122.306L246.478 111.323L235.581 90.5365Z" fill="#24285B"/>
<path d="M194.512 188.271C188.718 167.469 214.117 151.989 230.725 166.191C238.643 172.985 245.391 181.72 247.432 192.574C253.309 223.761 272.123 250.904 243.317 269.377C214.512 287.85 146.333 246.86 146.333 246.86L155.715 230.118C155.715 230.118 189.838 243.399 211.006 242.234C225.606 241.442 202.693 217.647 194.512 188.271Z" fill="#68E1FD"/>
<path d="M130.339 202.176L150.912 207.003L142.987 239.619L122.414 234.791L130.339 202.176Z" fill="#FFD200"/>
<path opacity="0.3" d="M194.512 188.271C188.718 167.469 214.117 151.989 230.725 166.191C238.643 172.985 245.391 181.72 247.432 192.574C253.309 223.761 272.123 250.904 243.317 269.377C214.512 287.85 146.333 246.86 146.333 246.86L155.715 230.118C155.715 230.118 189.838 243.399 211.006 242.234C225.606 241.442 202.693 217.647 194.512 188.271Z" fill="white"/>
<path d="M154.464 232.221C153.691 229.038 152.156 226.082 149.987 223.599C146.3 219.264 145.049 217.339 139.963 217.436C134.876 217.534 134.366 235.893 148.407 243.027L154.464 232.221Z" fill="#F4A28C"/>
<path d="M198.924 288.562C198.924 288.562 183.78 350.354 214.1 376.332L203.417 386.151C203.417 386.151 164.11 363.731 158.629 302.133L198.924 288.562Z" fill="#24285B"/>
<path d="M97.6101 112.325L103.931 123.309L57.7101 194.887C50.5663 205.935 32.7726 201.357 32.608 188.271C32.608 182.238 34.4681 174.975 39.9494 166.401C59.8006 135.247 97.6101 112.325 97.6101 112.325Z" fill="#68E1FD"/>
<path d="M92.4648 94.4725L92.9012 91.2666L110.048 93.521L109.612 96.7269L92.4648 94.4725Z" fill="#C9C9C9"/>
<path d="M103.652 72.8865L106.184 70.8186L117.242 83.8934L114.71 85.9612L103.652 72.8865Z" fill="#C9C9C9"/>
<path d="M126.254 82.4836L127.852 65.5554L131.13 65.8543L129.532 82.7825L126.254 82.4836Z" fill="#C9C9C9"/>
<path d="M123.305 288.562C123.305 288.562 107.766 346.245 138.399 388.772L150.777 388.189C150.777 388.189 132.835 330.652 159.485 309.607L198.99 288.578L123.305 288.562Z" fill="#24285B"/>
</svg>
